<svg xmlns="http://www.w3.org/2000/svg" xmlns:xlink="http://www.w3.org/1999/xlink" width="755" height="530.12"><rect width="755" height="530.12" rx="5" ry="5" class="a"/><circle cx="20" cy="20" r="7.5" fill="#ff5f58"/><circle cx="44" cy="20" r="7.5" fill="#ffbd2e"/><circle cx="68" cy="20" r="7.5" fill="#18c132"/><svg height="477.62" viewBox="0 0 73 47.762" width="730" x="12.5" xmlns="http://www.w3.org/2000/svg" xmlns:xlink="http://www.w3.org/1999/xlink" y="40"><style>@keyframes m{0%{transform:translateX(0)}13.1%{transform:translateX(-73px)}18.3%{transform:translateX(-219px)}18.4%{transform:translateX(-292px)}28.8%{transform:translateX(-438px)}34.3%{transform:translateX(-584px)}50.7%{transform:translateX(-730px)}50.8%{transform:translateX(-803px)}65.4%{transform:translateX(-876px)}65.5%{transform:translateX(-1241px)}67.1%{transform:translateX(-1387px)}67.2%{transform:translateX(-1533px)}67.4%{transform:translateX(-1679px)}67.9%{transform:translateX(-1825px)}68%{transform:translateX(-2117px)}68.1%{transform:translateX(-2190px)}68.2%{transform:translateX(-2482px)}68.3%{transform:translateX(-2628px)}68.7%{transform:translateX(-2774px)}69%{transform:translateX(-2920px)}69.1%{transform:translateX(-3066px)}69.2%{transform:translateX(-3139px)}69.3%{transform:translateX(-3431px)}69.4%{transform:translateX(-3650px)}69.5%{transform:translateX(-4015px)}69.6%{transform:translateX(-4161px)}69.7%{transform:translateX(-4453px)}78.3%{transform:translateX(-4526px)}78.4%{transform:translateX(-4745px)}83.3%{transform:translateX(-4964px)}to{transform:translateX(-5110px)}}.a{fill:#000}.g{fill:#3f0}.h{fill:gray;font-weight:700}.i{fill:#0ff}.j{fill:#fff}</style><g font-size="1.67" font-family="Monaco,Consolas,Menlo,'Bitstream Vera Sans Mono','Powerline Symbols',monospace"><defs><symbol id="1"><text y="1.67" fill="#06f">~/dev/bili-example</text></symbol><symbol id="2"><text y="1.67" class="g">❯</text></symbol><symbol id="3"><text y="1.67" class="g">❯</text><text x="2.004" y="1.67" class="h">bili</text><text x="7.014" y="1.67" class="i">index.js</text><text x="16.032" y="1.67" class="i">--format</text><text x="25.05" y="1.67" class="i">cjs,umd,umd-min</text></symbol><symbol id="4"><text y="1.67" class="j">Bundling</text><text x="9.018" y="1.67" class="i">1</text><text x="11.022" y="1.67" class="j">file:</text><text x="17.034" y="1.67" class="g">index.js</text></symbol><symbol id="5"><text y="1.67" class="j">Bundling</text><text x="9.018" y="1.67" class="i">2</text><text x="11.022" y="1.67" class="j">files:</text><text x="18.036" y="1.67" class="g">style.css</text></symbol><symbol id="6"><text y="1.67" class="j">Bundling</text><text x="9.018" y="1.67" class="i">2</text><text x="11.022" y="1.67" class="j">files:</text><text x="18.036" y="1.67" class="g">node_modules/lodash.padleft/index.js</text></symbol><symbol id="7"><text y="1.67" class="j">Bundling</text><text x="9.018" y="1.67" class="i">3</text><text x="11.022" y="1.67" class="j">files:</text><text x="18.036" y="1.67" class="g">node_modules/lodash._basetostring/index.js</text></symbol><symbol id="8"><text y="1.67" class="j">Bundling</text><text x="9.018" y="1.67" class="i">4</text><text x="11.022" y="1.67" class="j">files:</text><text x="18.036" y="1.67" class="g">node_modules/lodash._createpadding/index.js</text></symbol><symbol id="9"><text y="1.67" class="j">Bundling</text><text x="9.018" y="1.67" class="i">5</text><text x="11.022" y="1.67" class="j">files:</text><text x="18.036" y="1.67" class="g">commonjsHelpers</text></symbol><symbol id="10"><text y="1.67" class="j">Bundling</text><text x="9.018" y="1.67" class="i">6</text><text x="11.022" y="1.67" class="j">files:</text><text x="18.036" y="1.67" class="g">node_modules/lodash.repeat/index.js</text></symbol><symbol id="11"><text y="1.67" class="j">Bundling</text><text x="9.018" y="1.67" class="i">7</text><text x="11.022" y="1.67" class="j">files:</text><text x="18.036" y="1.67" class="g">node_modules/lodash._root/index.js</text></symbol><symbol id="12"><text y="1.67" class="j">Bundling</text><text x="9.018" y="1.67" class="i">8</text><text x="11.022" y="1.67" class="j">files:</text></symbol><symbol id="13"><text y="1.67" class="g">commonjs-proxy:/Users/egoist/dev/bili-example/node_modules/lodash._root/i</text></symbol><symbol id="14"><text y="1.67" class="g">ndex.js</text></symbol><symbol id="15"><text y="1.67" class="j">Bundling</text><text x="9.018" y="1.67" class="i">9</text><text x="11.022" y="1.67" class="j">files:</text></symbol><symbol id="16"><text y="1.67" class="g">commonjs-proxy:/Users/egoist/dev/bili-example/node_modules/lodash.repeat/</text></symbol><symbol id="17"><text y="1.67" class="g">index.js</text></symbol><symbol id="18"><text y="1.67" class="j">Bundling</text><text x="9.018" y="1.67" class="i">10</text><text x="12.024" y="1.67" class="j">files:</text></symbol><symbol id="19"><text y="1.67" class="g">commonjs-proxy:/Users/egoist/dev/bili-example/node_modules/lodash._baseto</text></symbol><symbol id="20"><text y="1.67" class="g">string/index.js</text></symbol><symbol id="21"><text y="1.67" class="j">Bundling</text><text x="9.018" y="1.67" class="i">11</text><text x="12.024" y="1.67" class="j">files:</text></symbol><symbol id="22"><text y="1.67" class="g">commonjs-proxy:/Users/egoist/dev/bili-example/node_modules/lodash._create</text></symbol><symbol id="23"><text y="1.67" class="g">padding/index.js</text></symbol><symbol id="24"><text y="1.67" class="j">Bundling</text><text x="9.018" y="1.67" class="i">12</text><text x="12.024" y="1.67" class="j">files:</text><text x="19.038" y="1.67" class="g">style.css</text></symbol><symbol id="25"><text y="1.67" class="j">┌────────────────────────────────────────────┐</text></symbol><symbol id="26"><text y="1.67" class="j">│</text><text x="1.002" y="1.67" class="h">file</text><text x="27.054" y="1.67" class="h">size</text><text x="36.072" y="1.67" class="h">gzip</text><text x="41.082" y="1.67" class="h">size</text><text x="45.09" y="1.67" class="j">│</text></symbol><symbol id="27"><text y="1.67" class="j">│dist/bili-example.cjs.js</text><text x="27.054" y="1.67" class="j">374</text><text x="31.062" y="1.67" class="j">B</text><text x="36.072" y="1.67" class="g">252</text><text x="40.08" y="1.67" class="g">B</text><text x="45.09" y="1.67" class="j">│</text></symbol><symbol id="28"><text y="1.67" class="j">│dist/bili-example.js</text><text x="27.054" y="1.67" class="j">13.9</text><text x="32.064" y="1.67" class="j">kB</text><text x="36.072" y="1.67" class="g">3.77</text><text x="41.082" y="1.67" class="g">kB</text><text x="45.09" y="1.67" class="j">│</text></symbol><symbol id="29"><text y="1.67" class="j">│dist/bili-example.min.js</text><text x="27.054" y="1.67" class="j">2.15</text><text x="32.064" y="1.67" class="j">kB</text><text x="36.072" y="1.67" class="g">1.05</text><text x="41.082" y="1.67" class="g">kB</text><text x="45.09" y="1.67" class="j">│</text></symbol><symbol id="30"><text y="1.67" class="j">│dist/bili-example.css</text><text x="27.054" y="1.67" class="j">22</text><text x="30.06" y="1.67" class="j">B</text><text x="36.072" y="1.67" class="g">42</text><text x="39.078" y="1.67" class="g">B</text><text x="45.09" y="1.67" class="j">│</text></symbol><symbol id="31"><text y="1.67" class="j">└────────────────────────────────────────────┘</text></symbol><symbol id="a"><path fill="transparent" d="M0 0h73v22H0z"/></symbol><symbol id="b"><path fill="#f81ce5" d="M0 0h1.102v2.171H0z"/></symbol></defs><path class="a" d="M0 0h73v47.762H0z"/><g style="animation-duration:8.855571999999999s;animation-iteration-count:infinite;animation-name:m;animation-timing-function:steps(1,end)"><svg width="5183"><svg><use xlink:href="#a"/><use xlink:href="#b" x="-.004"/></svg><svg x="73"><use xlink:href="#a"/><use xlink:href="#b" x="-.004"/></svg><svg x="146"><use xlink:href="#a"/><use xlink:href="#b" x="-.004"/></svg><svg x="219"><use xlink:href="#a"/><use xlink:href="#b" x="-.004"/></svg><svg x="292"><use xlink:href="#a"/><use xlink:href="#b" x="1.996" y="2.146"/><use xlink:href="#1"/><use xlink:href="#2" y="2.171"/></svg><svg x="365"><use xlink:href="#a"/><use xlink:href="#b" x="6.996" y="2.146"/><use xlink:href="#1"/><text y="3.841" class="g">❯</text><text x="2.004" y="3.841" class="j">clear</text></svg><svg x="438"><use xlink:href="#a"/><use xlink:href="#b" x="6.996" y="2.146"/><use xlink:href="#1"/><text y="3.841" class="g">❯</text><text x="2.004" y="3.841" class="h">clear</text></svg><svg x="511"><use xlink:href="#a"/><use xlink:href="#b" x="39.996" y="2.146"/><use xlink:href="#1"/><text y="3.841" class="g">❯</text><text x="2.004" y="3.841" class="h">bili</text><text x="7.014" y="3.841" class="h">index.js</text><text x="16.032" y="3.841" class="h">--format</text><text x="25.05" y="3.841" class="h">cjs,umd,umd-min</text></svg><svg x="584"><use xlink:href="#a"/><use xlink:href="#b" x="39.996" y="2.146"/><use xlink:href="#1"/><use xlink:href="#3" y="2.171"/></svg><svg x="657"><use xlink:href="#a"/><use xlink:href="#b" x="-.004" y="4.317"/><use xlink:href="#1"/><use xlink:href="#3" y="2.171"/></svg><svg x="730"><use xlink:href="#a"/><use xlink:href="#b" x="-.004" y="4.317"/><use xlink:href="#1"/><use xlink:href="#3" y="2.171"/></svg><svg x="803"><use xlink:href="#a"/><use xlink:href="#b" x="-.004" y="4.317"/><use xlink:href="#1"/><use xlink:href="#3" y="2.171"/></svg><svg x="876"><use xlink:href="#a"/><use xlink:href="#1"/><use xlink:href="#3" y="2.171"/></svg><svg x="949"><use xlink:href="#a"/><use xlink:href="#1"/><use xlink:href="#3" y="2.171"/><use xlink:href="#4" y="4.342"/></svg><svg x="1022"><use xlink:href="#a"/><use xlink:href="#1"/><use xlink:href="#3" y="2.171"/><use xlink:href="#4" y="4.342"/></svg><svg x="1095"><use xlink:href="#a"/><use xlink:href="#1"/><use xlink:href="#3" y="2.171"/><use xlink:href="#4" y="4.342"/></svg><svg x="1168"><use xlink:href="#a"/><use xlink:href="#1"/><use xlink:href="#3" y="2.171"/><use xlink:href="#4" y="4.342"/></svg><svg x="1241"><use xlink:href="#a"/><use xlink:href="#1"/><use xlink:href="#3" y="2.171"/><use xlink:href="#4" y="4.342"/></svg><svg x="1314"><use xlink:href="#a"/><use xlink:href="#1"/><use xlink:href="#3" y="2.171"/><use xlink:href="#4" y="4.342"/></svg><svg x="1387"><use xlink:href="#a"/><use xlink:href="#1"/><use xlink:href="#3" y="2.171"/><use xlink:href="#5" y="4.342"/></svg><svg x="1460"><use xlink:href="#a"/><use xlink:href="#1"/><use xlink:href="#3" y="2.171"/><use xlink:href="#5" y="4.342"/></svg><svg x="1533"><use xlink:href="#a"/><use xlink:href="#1"/><use xlink:href="#3" y="2.171"/><use xlink:href="#6" y="4.342"/></svg><svg x="1606"><use xlink:href="#a"/><use xlink:href="#1"/><use xlink:href="#3" y="2.171"/><use xlink:href="#6" y="4.342"/></svg><svg x="1679"><use xlink:href="#a"/><use xlink:href="#1"/><use xlink:href="#3" y="2.171"/><use xlink:href="#6" y="4.342"/></svg><svg x="1752"><use xlink:href="#a"/><use xlink:href="#1"/><use xlink:href="#3" y="2.171"/><use xlink:href="#6" y="4.342"/></svg><svg x="1825"><use xlink:href="#a"/><use xlink:href="#1"/><use xlink:href="#3" y="2.171"/><use xlink:href="#7" y="4.342"/></svg><svg x="1898"><use xlink:href="#a"/><use xlink:href="#1"/><use xlink:href="#3" y="2.171"/><use xlink:href="#7" y="4.342"/></svg><svg x="1971"><use xlink:href="#a"/><use xlink:href="#1"/><use xlink:href="#3" y="2.171"/><use xlink:href="#7" y="4.342"/></svg><svg x="2044"><use xlink:href="#a"/><use xlink:href="#1"/><use xlink:href="#3" y="2.171"/><use xlink:href="#7" y="4.342"/></svg><svg x="2117"><use xlink:href="#a"/><use xlink:href="#1"/><use xlink:href="#3" y="2.171"/><use xlink:href="#8" y="4.342"/></svg><svg x="2190"><use xlink:href="#a"/><use xlink:href="#1"/><use xlink:href="#3" y="2.171"/><use xlink:href="#9" y="4.342"/></svg><svg x="2263"><use xlink:href="#a"/><use xlink:href="#1"/><use xlink:href="#3" y="2.171"/><use xlink:href="#9" y="4.342"/></svg><svg x="2336"><use xlink:href="#a"/><use xlink:href="#1"/><use xlink:href="#3" y="2.171"/><use xlink:href="#8" y="4.342"/></svg><svg x="2409"><use xlink:href="#a"/><use xlink:href="#1"/><use xlink:href="#3" y="2.171"/><use xlink:href="#8" y="4.342"/></svg><svg x="2482"><use xlink:href="#a"/><use xlink:href="#1"/><use xlink:href="#3" y="2.171"/><use xlink:href="#9" y="4.342"/></svg><svg x="2555"><use xlink:href="#a"/><use xlink:href="#1"/><use xlink:href="#3" y="2.171"/><use xlink:href="#9" y="4.342"/></svg><svg x="2628"><use xlink:href="#a"/><use xlink:href="#1"/><use xlink:href="#3" y="2.171"/><use xlink:href="#10" y="4.342"/></svg><svg x="2701"><use xlink:href="#a"/><use xlink:href="#1"/><use xlink:href="#3" y="2.171"/><use xlink:href="#10" y="4.342"/></svg><svg x="2774"><use xlink:href="#a"/><use xlink:href="#1"/><use xlink:href="#3" y="2.171"/><use xlink:href="#10" y="4.342"/></svg><svg x="2847"><use xlink:href="#a"/><use xlink:href="#1"/><use xlink:href="#3" y="2.171"/><use xlink:href="#10" y="4.342"/></svg><svg x="2920"><use xlink:href="#a"/><use xlink:href="#1"/><use xlink:href="#3" y="2.171"/><use xlink:href="#11" y="4.342"/></svg><svg x="2993"><use xlink:href="#a"/><use xlink:href="#1"/><use xlink:href="#3" y="2.171"/><use xlink:href="#11" y="4.342"/></svg><svg x="3066"><use xlink:href="#a"/><use xlink:href="#1"/><use xlink:href="#3" y="2.171"/><use xlink:href="#11" y="4.342"/></svg><svg x="3139"><use xlink:href="#a"/><use xlink:href="#1"/><use xlink:href="#3" y="2.171"/><use xlink:href="#11" y="4.342"/></svg><svg x="3212"><use xlink:href="#a"/><use xlink:href="#1"/><use xlink:href="#3" y="2.171"/><use xlink:href="#12" y="4.342"/><use xlink:href="#13" y="6.513"/><use xlink:href="#14" y="8.684"/></svg><svg x="3285"><use xlink:href="#a"/><use xlink:href="#1"/><use xlink:href="#3" y="2.171"/><use xlink:href="#12" y="4.342"/><use xlink:href="#13" y="6.513"/><use xlink:href="#14" y="8.684"/></svg><svg x="3358"><use xlink:href="#a"/><use xlink:href="#1"/><use xlink:href="#3" y="2.171"/><use xlink:href="#12" y="4.342"/><use xlink:href="#13" y="6.513"/><use xlink:href="#14" y="8.684"/></svg><svg x="3431"><use xlink:href="#a"/><use xlink:href="#1"/><use xlink:href="#3" y="2.171"/><use xlink:href="#12" y="4.342"/><use xlink:href="#13" y="6.513"/><use xlink:href="#14" y="8.684"/></svg><svg x="3504"><use xlink:href="#a"/><use xlink:href="#1"/><use xlink:href="#3" y="2.171"/><use xlink:href="#15" y="4.342"/><use xlink:href="#16" y="6.513"/><use xlink:href="#17" y="8.684"/></svg><svg x="3577"><use xlink:href="#a"/><use xlink:href="#1"/><use xlink:href="#3" y="2.171"/><use xlink:href="#15" y="4.342"/><use xlink:href="#16" y="6.513"/><use xlink:href="#17" y="8.684"/></svg><svg x="3650"><use xlink:href="#a"/><use xlink:href="#1"/><use xlink:href="#3" y="2.171"/><use xlink:href="#15" y="4.342"/><use xlink:href="#16" y="6.513"/><use xlink:href="#17" y="8.684"/></svg><svg x="3723"><use xlink:href="#a"/><use xlink:href="#1"/><use xlink:href="#3" y="2.171"/><use xlink:href="#15" y="4.342"/><use xlink:href="#16" y="6.513"/><use xlink:href="#17" y="8.684"/></svg><svg x="3796"><use xlink:href="#a"/><use xlink:href="#1"/><use xlink:href="#3" y="2.171"/><use xlink:href="#18" y="4.342"/><use xlink:href="#19" y="6.513"/><use xlink:href="#20" y="8.684"/></svg><svg x="3869"><use xlink:href="#a"/><use xlink:href="#1"/><use xlink:href="#3" y="2.171"/><use xlink:href="#18" y="4.342"/><use xlink:href="#19" y="6.513"/><use xlink:href="#20" y="8.684"/></svg><svg x="3942"><use xlink:href="#a"/><use xlink:href="#1"/><use xlink:href="#3" y="2.171"/><use xlink:href="#18" y="4.342"/><use xlink:href="#19" y="6.513"/><use xlink:href="#20" y="8.684"/></svg><svg x="4015"><use xlink:href="#a"/><use xlink:href="#1"/><use xlink:href="#3" y="2.171"/><use xlink:href="#18" y="4.342"/><use xlink:href="#19" y="6.513"/><use xlink:href="#20" y="8.684"/></svg><svg x="4088"><use xlink:href="#a"/><use xlink:href="#1"/><use xlink:href="#3" y="2.171"/><use xlink:href="#21" y="4.342"/><use xlink:href="#22" y="6.513"/><use xlink:href="#23" y="8.684"/></svg><svg x="4161"><use xlink:href="#a"/><use xlink:href="#1"/><use xlink:href="#3" y="2.171"/><use xlink:href="#21" y="4.342"/><use xlink:href="#22" y="6.513"/><use xlink:href="#23" y="8.684"/></svg><svg x="4234"><use xlink:href="#a"/><use xlink:href="#1"/><use xlink:href="#3" y="2.171"/><use xlink:href="#21" y="4.342"/><use xlink:href="#22" y="6.513"/><use xlink:href="#23" y="8.684"/></svg><svg x="4307"><use xlink:href="#a"/><use xlink:href="#1"/><use xlink:href="#3" y="2.171"/><use xlink:href="#24" y="4.342"/></svg><svg x="4380"><use xlink:href="#a"/><use xlink:href="#1"/><use xlink:href="#3" y="2.171"/><use xlink:href="#24" y="4.342"/></svg><svg x="4453"><use xlink:href="#a"/><use xlink:href="#1"/><use xlink:href="#3" y="2.171"/><use xlink:href="#24" y="4.342"/></svg><svg x="4526"><use xlink:href="#a"/><use xlink:href="#1"/><use xlink:href="#3" y="2.171"/><use xlink:href="#24" y="4.342"/></svg><svg x="4599"><use xlink:href="#a"/><use xlink:href="#1"/><use xlink:href="#3" y="2.171"/><use xlink:href="#25" y="4.342"/><use xlink:href="#26" y="6.513"/><use xlink:href="#27" y="8.684"/><use xlink:href="#28" y="10.855"/><use xlink:href="#29" y="13.026"/><use xlink:href="#30" y="15.197"/><use xlink:href="#31" y="17.368"/></svg><svg x="4672"><use xlink:href="#a"/><use xlink:href="#b" x="-.004" y="19.514"/><use xlink:href="#1"/><use xlink:href="#3" y="2.171"/><use xlink:href="#25" y="4.342"/><use xlink:href="#26" y="6.513"/><use xlink:href="#27" y="8.684"/><use xlink:href="#28" y="10.855"/><use xlink:href="#29" y="13.026"/><use xlink:href="#30" y="15.197"/><use xlink:href="#31" y="17.368"/></svg><svg x="4745"><use xlink:href="#a"/><use xlink:href="#b" x="-.004" y="19.514"/><use xlink:href="#1"/><use xlink:href="#3" y="2.171"/><use xlink:href="#25" y="4.342"/><use xlink:href="#26" y="6.513"/><use xlink:href="#27" y="8.684"/><use xlink:href="#28" y="10.855"/><use xlink:href="#29" y="13.026"/><use xlink:href="#30" y="15.197"/><use xlink:href="#31" y="17.368"/></svg><svg x="4818"><use xlink:href="#a"/><use xlink:href="#b" x="-.004" y="19.514"/><use xlink:href="#1"/><use xlink:href="#3" y="2.171"/><use xlink:href="#25" y="4.342"/><use xlink:href="#26" y="6.513"/><use xlink:href="#27" y="8.684"/><use xlink:href="#28" y="10.855"/><use xlink:href="#29" y="13.026"/><use xlink:href="#30" y="15.197"/><use xlink:href="#31" y="17.368"/></svg><svg x="4891"><use xlink:href="#a"/><use xlink:href="#b" x="-.004" y="19.514"/><use xlink:href="#1"/><use xlink:href="#3" y="2.171"/><use xlink:href="#25" y="4.342"/><use xlink:href="#26" y="6.513"/><use xlink:href="#27" y="8.684"/><use xlink:href="#28" y="10.855"/><use xlink:href="#29" y="13.026"/><use xlink:href="#30" y="15.197"/><use xlink:href="#31" y="17.368"/></svg><svg x="4964"><use xlink:href="#a"/><use xlink:href="#b" x="1.996" y="21.685"/><use xlink:href="#1"/><use xlink:href="#3" y="2.171"/><use xlink:href="#25" y="4.342"/><use xlink:href="#26" y="6.513"/><use xlink:href="#27" y="8.684"/><use xlink:href="#28" y="10.855"/><use xlink:href="#29" y="13.026"/><use xlink:href="#30" y="15.197"/><use xlink:href="#31" y="17.368"/><use xlink:href="#1" y="19.539"/><use xlink:href="#2" y="21.71"/></svg><svg x="5037"><use xlink:href="#a"/><use xlink:href="#b" x="-.004" y="23.856"/><use xlink:href="#1"/><use xlink:href="#3" y="2.171"/><use xlink:href="#25" y="4.342"/><use xlink:href="#26" y="6.513"/><use xlink:href="#27" y="8.684"/><use xlink:href="#28" y="10.855"/><use xlink:href="#29" y="13.026"/><use xlink:href="#30" y="15.197"/><use xlink:href="#31" y="17.368"/><use xlink:href="#1" y="19.539"/><use xlink:href="#2" y="21.71"/></svg><svg x="5110"><use xlink:href="#a"/><use xlink:href="#b" x="-.004" y="23.856"/><use xlink:href="#1"/><use xlink:href="#3" y="2.171"/><use xlink:href="#25" y="4.342"/><use xlink:href="#26" y="6.513"/><use xlink:href="#27" y="8.684"/><use xlink:href="#28" y="10.855"/><use xlink:href="#29" y="13.026"/><use xlink:href="#30" y="15.197"/><use xlink:href="#31" y="17.368"/><use xlink:href="#1" y="19.539"/><use xlink:href="#2" y="21.71"/></svg></svg></g></g></svg></svg>