<svg xmlns="http://www.w3.org/2000/svg" xmlns:xlink="http://www.w3.org/1999/xlink" width="965" height="595.25"><rect width="965" height="595.25" rx="5" ry="5" class="a"/><circle cx="20" cy="20" r="9.5" fill="#ff5f58"/><circle cx="51" cy="20" r="9.5" fill="#ffbd2e"/><circle cx="82" cy="20" r="9.5" fill="#18c132"/><svg height="542.75" viewBox="0 0 94 54.275" width="940" x="12.5" xmlns="http://www.w3.org/2000/svg" xmlns:xlink="http://www.w3.org/1999/xlink" y="40"><style>@keyframes n{0%{transform:translateX(0)}3.7%{transform:translateX(-94px)}4.2%{transform:translateX(-188px)}4.3%{transform:translateX(-282px)}6.8%{transform:translateX(-564px)}18.9%{transform:translateX(-752px)}22.1%{transform:translateX(-940px)}42.2%{transform:translateX(-1222px)}42.3%{transform:translateX(-1410px)}64.6%{transform:translateX(-1598px)}64.7%{transform:translateX(-1786px)}67.7%{transform:translateX(-1974px)}68.8%{transform:translateX(-2162px)}69.6%{transform:translateX(-2256px)}69.7%{transform:translateX(-2350px)}69.9%{transform:translateX(-2538px)}70%{transform:translateX(-2726px)}70.3%{transform:translateX(-2914px)}70.7%{transform:translateX(-3102px)}72.1%{transform:translateX(-3290px)}78.6%{transform:translateX(-3384px)}78.7%{transform:translateX(-3478px)}78.9%{transform:translateX(-3666px)}79.2%{transform:translateX(-3760px)}81.3%{transform:translateX(-3854px)}81.4%{transform:translateX(-3948px)}to{transform:translateX(-4230px)}}.a{fill:#282d35}.h{fill:#a8cc8c}.i{fill:#b9c0cb;font-weight:700}.j{fill:#66c2cd}.k{fill:#b9c0cb}</style><g font-size="1.67" font-family="Monaco,Consolas,Menlo,'Bitstream Vera Sans Mono','Powerline Symbols',monospace"><defs><symbol id="1"><text y="1.67" fill="#71bef2">~/dev/vue-final-form</text><text x="21.042" y="1.67" fill="#93a1a1">master</text></symbol><symbol id="2"><text y="1.67" class="h">❯</text></symbol><symbol id="3"><text y="1.67" class="h">❯</text><text x="2.004" y="1.67" class="i">bili</text><text x="7.014" y="1.67" class="j">--format</text><text x="16.032" y="1.67" class="j">umd,umd-min</text><text x="28.056" y="1.67" class="j">--module-name</text><text x="42.084" y="1.67" class="j">VueFinalForm</text><text x="55.11" y="1.67" class="j">--global.final-form</text><text x="75.15" y="1.67" class="j">final-form</text></symbol><symbol id="4"><text y="1.67" class="k">⏳</text><text x="3.006" y="1.67" class="k">Bundling</text><text x="12.024" y="1.67" class="j">1</text><text x="14.028" y="1.67" class="k">file:</text><text x="20.04" y="1.67" class="h">src/index.js</text></symbol><symbol id="5"><text y="1.67" class="k">⏳</text><text x="3.006" y="1.67" class="k">Bundling</text><text x="12.024" y="1.67" class="j">2</text><text x="14.028" y="1.67" class="k">files:</text><text x="21.042" y="1.67" class="h">src/Form.js</text></symbol><symbol id="6"><text y="1.67" class="k">⏳</text><text x="3.006" y="1.67" class="k">Bundling</text><text x="12.024" y="1.67" class="j">3</text><text x="14.028" y="1.67" class="k">files:</text><text x="21.042" y="1.67" class="h">node_modules/nano-assign/dist/nano-assign.common.js</text></symbol><symbol id="7"><text y="1.67" class="k">⏳</text><text x="3.006" y="1.67" class="k">Bundling</text><text x="12.024" y="1.67" class="j">4</text><text x="14.028" y="1.67" class="k">files:</text><text x="21.042" y="1.67" class="h">src/utils.js</text></symbol><symbol id="8"><text y="1.67" class="k">⏳</text><text x="3.006" y="1.67" class="k">Bundling</text><text x="12.024" y="1.67" class="j">5</text><text x="14.028" y="1.67" class="k">files:</text><text x="21.042" y="1.67" class="h">src/Field.js</text></symbol><symbol id="9"><text y="1.67" class="k">✨</text><text x="3.006" y="1.67" class="h">Built</text><text x="9.018" y="1.67" class="h">in</text><text x="12.024" y="1.67" class="h">1.23s.</text></symbol><symbol id="10"><text y="1.67" class="k">┌──────────────────────────────────────────────┐</text></symbol><symbol id="11"><text y="1.67" class="k">│</text><text x="1.002" y="1.67" class="i">file</text><text x="29.058" y="1.67" class="i">size</text><text x="38.076" y="1.67" class="i">gzip</text><text x="43.086" y="1.67" class="i">size</text><text x="47.094" y="1.67" class="k">│</text></symbol><symbol id="12"><text y="1.67" class="k">│dist/vue-final-form.js</text><text x="29.058" y="1.67" class="k">4.96</text><text x="34.068" y="1.67" class="k">KB</text><text x="38.076" y="1.67" class="h">1.66</text><text x="43.086" y="1.67" class="h">KB</text><text x="47.094" y="1.67" class="k">│</text></symbol><symbol id="13"><text y="1.67" class="k">│dist/vue-final-form.min.js</text><text x="29.058" y="1.67" class="k">2.83</text><text x="34.068" y="1.67" class="k">KB</text><text x="38.076" y="1.67" class="h">1.06</text><text x="43.086" y="1.67" class="h">KB</text><text x="47.094" y="1.67" class="k">│</text></symbol><symbol id="14"><text y="1.67" class="k">└──────────────────────────────────────────────┘</text></symbol><symbol id="a"><path fill="transparent" d="M0 0h94v25H0z"/></symbol><symbol id="b"><path fill="#6f7683" d="M0 0h1.102v2.171H0z"/></symbol></defs><path class="a" d="M0 0h94v54.275H0z"/><g style="animation-duration:4.902170000000001s;animation-iteration-count:infinite;animation-name:n;animation-timing-function:steps(1,end)"><svg width="4324"><svg><use xlink:href="#a"/><use xlink:href="#b" x="-.004"/></svg><svg x="94"><use xlink:href="#a"/><use xlink:href="#b" x="-.004"/></svg><svg x="188"><use xlink:href="#a"/><use xlink:href="#b" x="-.004"/></svg><svg x="282"><use xlink:href="#a"/><use xlink:href="#b" x="-.004"/></svg><svg x="376"><use xlink:href="#a"/><use xlink:href="#b" x="-.004"/></svg><svg x="470"><use xlink:href="#a"/><use xlink:href="#b" x="-.004"/></svg><svg x="564"><use xlink:href="#a"/><use xlink:href="#b" x="1.996" y="2.146"/><use xlink:href="#1"/><use xlink:href="#2" y="2.171"/></svg><svg x="658"><use xlink:href="#a"/><use xlink:href="#b" x="6.996" y="2.146"/><use xlink:href="#1"/><text y="3.841" class="h">❯</text><text x="2.004" y="3.841" class="k">clear</text></svg><svg x="752"><use xlink:href="#a"/><use xlink:href="#b" x="6.996" y="2.146"/><use xlink:href="#1"/><text y="3.841" class="h">❯</text><text x="2.004" y="3.841" class="i">clear</text></svg><svg x="846"><use xlink:href="#a"/><use xlink:href="#b" x="84.996" y="2.146"/><use xlink:href="#1"/><text y="3.841" class="h">❯</text><text x="2.004" y="3.841" class="i">bili</text><text x="7.014" y="3.841" class="i">--format</text><text x="16.032" y="3.841" class="i">umd,umd-min</text><text x="28.056" y="3.841" class="i">--module-name</text><text x="42.084" y="3.841" class="i">VueFinalForm</text><text x="55.11" y="3.841" class="i">--global.final-form</text><text x="75.15" y="3.841" class="i">final-form</text></svg><svg x="940"><use xlink:href="#a"/><use xlink:href="#b" x="84.996" y="2.146"/><use xlink:href="#1"/><use xlink:href="#3" y="2.171"/></svg><svg x="1034"><use xlink:href="#a"/><use xlink:href="#b" x="-.004" y="4.317"/><use xlink:href="#1"/><use xlink:href="#3" y="2.171"/></svg><svg x="1128"><use xlink:href="#a"/><use xlink:href="#b" x="-.004" y="4.317"/><use xlink:href="#1"/><use xlink:href="#3" y="2.171"/></svg><svg x="1222"><use xlink:href="#a"/><use xlink:href="#b" x="-.004" y="4.317"/><use xlink:href="#1"/><use xlink:href="#3" y="2.171"/></svg><svg x="1316"><use xlink:href="#a"/><use xlink:href="#b" x="-.004" y="4.317"/><use xlink:href="#1"/><use xlink:href="#3" y="2.171"/></svg><svg x="1410"><use xlink:href="#a"/><use xlink:href="#b" x="-.004" y="4.317"/><use xlink:href="#1"/><use xlink:href="#3" y="2.171"/></svg><svg x="1504"><use xlink:href="#a"/><use xlink:href="#1"/><use xlink:href="#3" y="2.171"/></svg><svg x="1598"><use xlink:href="#a"/><use xlink:href="#1"/><use xlink:href="#3" y="2.171"/><use xlink:href="#4" y="4.342"/></svg><svg x="1692"><use xlink:href="#a"/><use xlink:href="#1"/><use xlink:href="#3" y="2.171"/><use xlink:href="#4" y="4.342"/></svg><svg x="1786"><use xlink:href="#a"/><use xlink:href="#1"/><use xlink:href="#3" y="2.171"/><use xlink:href="#4" y="4.342"/></svg><svg x="1880"><use xlink:href="#a"/><use xlink:href="#1"/><use xlink:href="#3" y="2.171"/><use xlink:href="#4" y="4.342"/></svg><svg x="1974"><use xlink:href="#a"/><use xlink:href="#1"/><use xlink:href="#3" y="2.171"/><use xlink:href="#5" y="4.342"/></svg><svg x="2068"><use xlink:href="#a"/><use xlink:href="#1"/><use xlink:href="#3" y="2.171"/><use xlink:href="#5" y="4.342"/></svg><svg x="2162"><use xlink:href="#a"/><use xlink:href="#1"/><use xlink:href="#3" y="2.171"/><use xlink:href="#5" y="4.342"/></svg><svg x="2256"><use xlink:href="#a"/><use xlink:href="#1"/><use xlink:href="#3" y="2.171"/><use xlink:href="#5" y="4.342"/></svg><svg x="2350"><use xlink:href="#a"/><use xlink:href="#1"/><use xlink:href="#3" y="2.171"/><use xlink:href="#6" y="4.342"/></svg><svg x="2444"><use xlink:href="#a"/><use xlink:href="#1"/><use xlink:href="#3" y="2.171"/><use xlink:href="#6" y="4.342"/></svg><svg x="2538"><use xlink:href="#a"/><use xlink:href="#1"/><use xlink:href="#3" y="2.171"/><use xlink:href="#6" y="4.342"/></svg><svg x="2632"><use xlink:href="#a"/><use xlink:href="#1"/><use xlink:href="#3" y="2.171"/><use xlink:href="#6" y="4.342"/></svg><svg x="2726"><use xlink:href="#a"/><use xlink:href="#1"/><use xlink:href="#3" y="2.171"/><use xlink:href="#7" y="4.342"/></svg><svg x="2820"><use xlink:href="#a"/><use xlink:href="#1"/><use xlink:href="#3" y="2.171"/><use xlink:href="#7" y="4.342"/></svg><svg x="2914"><use xlink:href="#a"/><use xlink:href="#1"/><use xlink:href="#3" y="2.171"/><use xlink:href="#7" y="4.342"/></svg><svg x="3008"><use xlink:href="#a"/><use xlink:href="#1"/><use xlink:href="#3" y="2.171"/><use xlink:href="#7" y="4.342"/></svg><svg x="3102"><use xlink:href="#a"/><use xlink:href="#1"/><use xlink:href="#3" y="2.171"/><use xlink:href="#8" y="4.342"/></svg><svg x="3196"><use xlink:href="#a"/><use xlink:href="#1"/><use xlink:href="#3" y="2.171"/><use xlink:href="#8" y="4.342"/></svg><svg x="3290"><use xlink:href="#a"/><use xlink:href="#1"/><use xlink:href="#3" y="2.171"/><use xlink:href="#8" y="4.342"/></svg><svg x="3384"><use xlink:href="#a"/><use xlink:href="#1"/><use xlink:href="#3" y="2.171"/></svg><svg x="3478"><use xlink:href="#a"/><use xlink:href="#1"/><use xlink:href="#3" y="2.171"/><use xlink:href="#9" y="4.342"/></svg><svg x="3572"><use xlink:href="#a"/><use xlink:href="#1"/><use xlink:href="#3" y="2.171"/><use xlink:href="#9" y="4.342"/><use xlink:href="#10" y="6.513"/><use xlink:href="#11" y="8.684"/><use xlink:href="#12" y="10.855"/><use xlink:href="#13" y="13.026"/><use xlink:href="#14" y="15.197"/></svg><svg x="3666"><use xlink:href="#a"/><use xlink:href="#b" x="-.004" y="17.343"/><use xlink:href="#1"/><use xlink:href="#3" y="2.171"/><use xlink:href="#9" y="4.342"/><use xlink:href="#10" y="6.513"/><use xlink:href="#11" y="8.684"/><use xlink:href="#12" y="10.855"/><use xlink:href="#13" y="13.026"/><use xlink:href="#14" y="15.197"/></svg><svg x="3760"><use xlink:href="#a"/><use xlink:href="#b" x="-.004" y="17.343"/><use xlink:href="#1"/><use xlink:href="#3" y="2.171"/><use xlink:href="#9" y="4.342"/><use xlink:href="#10" y="6.513"/><use xlink:href="#11" y="8.684"/><use xlink:href="#12" y="10.855"/><use xlink:href="#13" y="13.026"/><use xlink:href="#14" y="15.197"/></svg><svg x="3854"><use xlink:href="#a"/><use xlink:href="#b" x="-.004" y="17.343"/><use xlink:href="#1"/><use xlink:href="#3" y="2.171"/><use xlink:href="#9" y="4.342"/><use xlink:href="#10" y="6.513"/><use xlink:href="#11" y="8.684"/><use xlink:href="#12" y="10.855"/><use xlink:href="#13" y="13.026"/><use xlink:href="#14" y="15.197"/></svg><svg x="3948"><use xlink:href="#a"/><use xlink:href="#b" x="1.996" y="19.514"/><use xlink:href="#1"/><use xlink:href="#3" y="2.171"/><use xlink:href="#9" y="4.342"/><use xlink:href="#10" y="6.513"/><use xlink:href="#11" y="8.684"/><use xlink:href="#12" y="10.855"/><use xlink:href="#13" y="13.026"/><use xlink:href="#14" y="15.197"/><use xlink:href="#1" y="17.368"/><use xlink:href="#2" y="19.539"/></svg><svg x="4042"><use xlink:href="#a"/><use xlink:href="#b" x="-.004" y="21.685"/><use xlink:href="#1"/><use xlink:href="#3" y="2.171"/><use xlink:href="#9" y="4.342"/><use xlink:href="#10" y="6.513"/><use xlink:href="#11" y="8.684"/><use xlink:href="#12" y="10.855"/><use xlink:href="#13" y="13.026"/><use xlink:href="#14" y="15.197"/><use xlink:href="#1" y="17.368"/><use xlink:href="#2" y="19.539"/></svg><svg x="4136"><use xlink:href="#a"/><use xlink:href="#b" x="-.004" y="21.685"/><use xlink:href="#1"/><use xlink:href="#3" y="2.171"/><use xlink:href="#9" y="4.342"/><use xlink:href="#10" y="6.513"/><use xlink:href="#11" y="8.684"/><use xlink:href="#12" y="10.855"/><use xlink:href="#13" y="13.026"/><use xlink:href="#14" y="15.197"/><use xlink:href="#1" y="17.368"/><use xlink:href="#2" y="19.539"/></svg><svg x="4230"><use xlink:href="#a"/><use xlink:href="#b" x="-.004" y="21.685"/><use xlink:href="#1"/><use xlink:href="#3" y="2.171"/><use xlink:href="#9" y="4.342"/><use xlink:href="#10" y="6.513"/><use xlink:href="#11" y="8.684"/><use xlink:href="#12" y="10.855"/><use xlink:href="#13" y="13.026"/><use xlink:href="#14" y="15.197"/><use xlink:href="#1" y="17.368"/><use xlink:href="#2" y="19.539"/></svg></svg></g></g></svg></svg>